<svg id="visual" viewBox="0 0 900 600" width="900" height="600" xmlns="http://www.w3.org/2000/svg" xmlns:xlink="http://www.w3.org/1999/xlink" version="1.1"><path d="M0 145L13.7 148C27.3 151 54.7 157 82 170C109.3 183 136.7 203 163.8 198C191 193 218 163 245.2 145C272.3 127 299.7 121 327 138C354.3 155 381.7 195 409 198C436.3 201 463.7 167 491 145C518.3 123 545.7 113 573 129C600.3 145 627.7 187 654.8 212C682 237 709 245 736.2 226C763.3 207 790.7 161 818 141C845.3 121 872.7 127 886.3 130L900 133L900 0L886.3 0C872.7 0 845.3 0 818 0C790.7 0 763.3 0 736.2 0C709 0 682 0 654.8 0C627.7 0 600.3 0 573 0C545.7 0 518.3 0 491 0C463.7 0 436.3 0 409 0C381.7 0 354.3 0 327 0C299.7 0 272.3 0 245.2 0C218 0 191 0 163.8 0C136.7 0 109.3 0 82 0C54.7 0 27.3 0 13.7 0L0 0Z" fill="#6a9bff"></path><path d="M0 193L13.7 198C27.3 203 54.7 213 82 229C109.3 245 136.7 267 163.8 267C191 267 218 245 245.2 227C272.3 209 299.7 195 327 209C354.3 223 381.7 265 409 270C436.3 275 463.7 243 491 215C518.3 187 545.7 163 573 177C600.3 191 627.7 243 654.8 271C682 299 709 303 736.2 286C763.3 269 790.7 231 818 219C845.3 207 872.7 221 886.3 228L900 235L900 131L886.3 128C872.7 125 845.3 119 818 139C790.7 159 763.3 205 736.2 224C709 243 682 235 654.8 210C627.7 185 600.3 143 573 127C545.7 111 518.3 121 491 143C463.7 165 436.3 199 409 196C381.7 193 354.3 153 327 136C299.7 119 272.3 125 245.2 143C218 161 191 191 163.8 196C136.7 201 109.3 181 82 168C54.7 155 27.3 149 13.7 146L0 143Z" fill="#4684ff"></path><path d="M0 457L13.7 457C27.3 457 54.7 457 82 451C109.3 445 136.7 433 163.8 427C191 421 218 421 245.2 415C272.3 409 299.7 397 327 399C354.3 401 381.7 417 409 419C436.3 421 463.7 409 491 402C518.3 395 545.7 393 573 395C600.3 397 627.7 403 654.8 417C682 431 709 453 736.2 460C763.3 467 790.7 459 818 462C845.3 465 872.7 479 886.3 486L900 493L900 233L886.3 226C872.7 219 845.3 205 818 217C790.7 229 763.3 267 736.2 284C709 301 682 297 654.8 269C627.7 241 600.3 189 573 175C545.7 161 518.3 185 491 213C463.7 241 436.3 273 409 268C381.7 263 354.3 221 327 207C299.7 193 272.3 207 245.2 225C218 243 191 265 163.8 265C136.7 265 109.3 243 82 227C54.7 211 27.3 201 13.7 196L0 191Z" fill="#0c6dff"></path><path d="M0 529L13.7 531C27.3 533 54.7 537 82 533C109.3 529 136.7 517 163.8 517C191 517 218 529 245.2 518C272.3 507 299.7 473 327 473C354.3 473 381.7 507 409 510C436.3 513 463.7 485 491 468C518.3 451 545.7 445 573 456C600.3 467 627.7 495 654.8 508C682 521 709 519 736.2 524C763.3 529 790.7 541 818 543C845.3 545 872.7 537 886.3 533L900 529L900 491L886.3 484C872.7 477 845.3 463 818 460C790.7 457 763.3 465 736.2 458C709 451 682 429 654.8 415C627.7 401 600.3 395 573 393C545.7 391 518.3 393 491 400C463.7 407 436.3 419 409 417C381.7 415 354.3 399 327 397C299.7 395 272.3 407 245.2 413C218 419 191 419 163.8 425C136.7 431 109.3 443 82 449C54.7 455 27.3 455 13.7 455L0 455Z" fill="#025fdd"></path><path d="M0 601L13.7 601C27.3 601 54.7 601 82 601C109.3 601 136.7 601 163.8 601C191 601 218 601 245.2 601C272.3 601 299.7 601 327 601C354.3 601 381.7 601 409 601C436.3 601 463.7 601 491 601C518.3 601 545.7 601 573 601C600.3 601 627.7 601 654.8 601C682 601 709 601 736.2 601C763.3 601 790.7 601 818 601C845.3 601 872.7 601 886.3 601L900 601L900 527L886.3 531C872.7 535 845.3 543 818 541C790.7 539 763.3 527 736.2 522C709 517 682 519 654.8 506C627.7 493 600.3 465 573 454C545.7 443 518.3 449 491 466C463.7 483 436.3 511 409 508C381.7 505 354.3 471 327 471C299.7 471 272.3 505 245.2 516C218 527 191 515 163.8 515C136.7 515 109.3 527 82 531C54.7 535 27.3 531 13.7 529L0 527Z" fill="#0051bc"></path></svg>